<?xml version="1.0" encoding="utf-8"?>
<!-- Generator: Adobe Illustrator 25.0.0, SVG Export Plug-In . SVG Version: 6.00 Build 0)  -->
<svg version="1.1" id="Layer_1" xmlns="http://www.w3.org/2000/svg" xmlns:xlink="http://www.w3.org/1999/xlink" x="0px" y="0px"
	 viewBox="0 0 339.4 332.6" style="enable-background:new 0 0 339.4 332.6;" xml:space="preserve">
<path d="M315.3,277.4c-0.6,2.9-1.4,10.1-3.5,15c-2.6-1.6-5.4-2.9-8.2-4c-4.2-1.7-8.5-3.3-13-4.3c3.1-3.5,6.2-7,9.1-10.8
	c9-11.6,16.9-24,24.5-36.6c6-1.9,10.6-7.6,8.4-14.3c-0.7-2.2-16.2-8-17.3-6.3c-2.8,4.7-5.6,9.5-8.4,14.2c-0.4,0.1-0.8,0.2-1.2,0.2
	c0.3,0.2,0.5,0.3,0.8,0.5c0,0.1-0.1,0.1-0.1,0.2c-2.2-1.8-5.3-5.7-5.9-6.4c-7.8-9.5-11.5-21.4-11.3-33.7c0.1-3.3-17.3-6.2-17.3-6.3
	c-0.4,7.4-0.7,14.9-1.1,22.3c-0.1,1.5,3.5,2.9,7.4,4c4,7.6,10,14.1,17.6,18.4c2.7,1.5,5.7,3,8.9,4.3c-3.6,5.9-7.3,11.8-11.2,17.6
	c-5.4-2.3-11.7-2.7-18-1.9c4.9-1.3,9.8-2.9,14.6-4.9c4.2-1.7,9.1-8,2.4-10.5c-10.8-4-19.3-10.3-26.8-18.8
	c-6.4-7.2-16.5-9.8-24.4-4.3c-1.4-2.4-3-4.7-5-6.9c-13.7-15.1-36.4-13.5-53.7-6.2c-6.9,2.9-16.4,8.3-15.8,17.1
	c0.2,3.1,1.7,5.5,3.8,7.5c-4.7-2.3-13.4-3.5-15.1,0.1c-0.1,0.2-0.2,0.4-0.3,0.5c-1.3,0-2.6,0.1-3.7,0.3c-3.5,0.9-3.9,2.9-0.9,5.1
	c0.5,0.4,1,0.7,1.5,1c-2.2,4.7-4.5,9.3-6.7,14c-2.2,4.6-8.7,12.3-4,16.7c4.4,4.1,12.4,4.5,17.9,5.7c1.3,0.3,2.6,0.6,3.9,0.8
	c-2.4,0.9-6.6,3-4.4,4.7c7.4,5.6,16.4,8.9,25.8,10.1c-0.5,1.9-1,3.8-1.5,5.7c-6.8-1-13.7-1.7-20.6-2c-13.9-0.6-27.7,1-40.6,5.2
	c14.4-43.9,28.8-87.8,43.2-131.8c1-3-23.2-7.8-25.6-2.3c-5.5,12.5-15.7,22.1-28.7,26.5c-5.2,1.8,2.5,4.4,4.2,4.8
	c4.1,1,9.3,1.8,13.8,1.2c-13.2,40.2-26.3,80.4-39.5,120.6c-1.4,4.1,22.1,5.7,25.1,3.1c9.5-8.5,20.5-14.8,32.8-18.3
	c11.4-3.2,22.6-2.4,34.2-0.7c-1.2,5.3-4.3,18.8-6.6,18.8c-4.5,0-6.9,4.8-5.7,8.7c1.4,4.7,6.3,7.2,10.8,7.1
	c8.6-0.1,12.1-7.7,14.4-14.8c1.8-5.6,3.4-11.3,5-17c15.9,2.5,31.9,4.6,47.8,3.2c-3,3.2-5.7,6.7-8.1,10.2c-0.1,0.1,14.8,8.4,17.3,6.3
	c9-7.8,18-15.7,26.4-24.1c2.2-0.9,4.4-1.7,6.7-2.2c2.1-0.4,4.2-0.7,6.4-0.7c0.9,0,1.8,0,2.7,0.1c0,0,0,0,0,0c2.7,2.7,5,6.1,8.2,8.2
	c3.9,2.5,8.7,4,13.1,5.1c3.9,1,6,1.3,8.1-2.6c2.6-4.8,3.5-11.1,4.5-16.4C333.1,281.2,315.5,276.6,315.3,277.4z M244.7,251.1
	c1.5,1.8,4.4,2.7,6.5,2.5c4.7-0.4,9.3-0.9,13.9-1.7c-2.4,0.7-4.6,1.5-6.7,2.4c-5.6,2.4-11,5.4-15.8,9
	C243.3,259.2,243.9,255.1,244.7,251.1z M258.4,231.3c3.3,2.9,6.9,5.4,10.7,7.6c-4.9,1.2-9.9,2.1-15,2.5c-2.5,0.2-5.7,0.8-8,2.4
	c0-0.1,0-0.3,0.1-0.4c1.4-6.4,3-12.7,4.9-19c0-0.1,0.1-0.2,0.1-0.3C253.6,226.6,255.9,229.1,258.4,231.3z M185.3,210.2
	c1.6-6.5,11.6-10.1,17.5-10.2c16.1-0.3,25.4,19.2,26.3,32.8c0.2,2.5,0.1,5.1-0.2,7.7c-0.4,1.8-0.8,3.7-1.2,5.5
	c-0.2,1.2-0.5,2.3-0.7,3.5c-2.4,7.6-6.9,14.5-13.3,19.4c-2.7,2-5.5,3.5-8.5,4.4c3.3-15.2,5.7-30.6,7.5-46.1
	c0.5-4.7-2.1-8.8-6.6-10.5c-3.3-1.3-9.8-0.6-10.3,4.1c0,0.4-0.1,0.9-0.2,1.3C190.2,220.2,183.7,216.7,185.3,210.2z M185.4,229.3
	c2.7,0.8,6.2,0.6,9.3-0.3c-0.7,5.4-1.5,10.7-2.3,16.1c-2.7-4.4-6-8.2-10.5-11c-3.1-1.8-6.5-3-9.9-4.4c0.6-1.3,1.2-2.5,1.8-3.8
	c0.2-0.5,0.1-1-0.2-1.4C177.3,226.9,181.8,228.3,185.4,229.3z M158.1,258.5c1.1-0.9,1.6-3.1,2.2-4.5c2.7-5.7,5.4-11.3,8.1-17
	c1.2,0.8,2.3,1.6,3.2,2.6c2.9,3,4.8,7.2,6.5,11c0.8,1.6,3,5.7,2.4,7.4c-0.8,2.2-4.2,3-6.1,3.1c-4.4,0.3-9.3-1.4-13.6-2.4
	C160.3,258.7,159.2,258.6,158.1,258.5z M179.1,269.1c1.1,0,2.2,0,3.3,0c1.6-0.1,3.6-0.2,5.5-0.6c-0.1,0.2-0.1,0.5-0.2,0.7
	c-0.3,1.2-0.5,2.4-0.8,3.6C184.2,271.9,181.6,270.7,179.1,269.1z M206.1,291c-1.6-0.3-3.2-0.5-4.8-0.8c0.4-1.6,0.8-3.3,1.2-4.9
	c0.3-1.3,0.6-2.6,0.9-3.9c7-1.1,13.8-3.5,19.9-6.9c-0.4,4.2-0.8,8.4-1.1,12.6c-0.5,8.5,14.1,7.5,17.3,1.8c5-8.9,11.9-16.3,20.7-21.4
	c6.4-3.7,18.3-9.4,24.6-3.5c-0.8,1-1.5,2-2.3,3.1c-5.2,6.7-10.9,13-16.9,18.9c-3.2,1.4-6.2,3.2-9,5.4c-4.6-0.7-9.4-0.8-13.7,0.4
	C230.6,295,218.4,293.1,206.1,291z"/>
<path d="M293,141.4c-13.1-7.5-28.8-10.9-41.8-6.7c0.1-0.4,0.1-0.9,0.2-1.3c10.3-1.8,20.9-2,31.5-0.5c0.7,0.2,1.3,0,1.8-0.4
	c-0.5-11.4-4.1-26.7-11-36c-4.9-6.6-17.3-14-25.9-12.6c-8,1.3-10.2,12.7-11.5,21.2c-4.2-3.7-15.6-8.8-16.9-6.3
	c-4.8,9.2-10.2,18-15.9,26.5c-0.8-21.9-0.4-43.8,1.4-65.7c0.8-9.8-19-14.5-19.8-5.1c-1,13.2-1.7,26.3-1.9,39.5
	c-1.4,0.8-2.5,1.7-3.1,2.7c-0.2,0.3-0.3,0.5-0.5,0.8c-6.5-2.5-13.1-1.6-18.6,1.7c0.7-14,2.9-27.9,6.7-41.5
	c2.9-10.3-16.6-7.2-18.7,0.3c-4.6,16.5-7.2,33.2-7.7,50c-5-4.1-10.7-7.3-17.4-9c-14.2-3.6-36.6,2.3-37.5,20
	c-0.5,8.8,4.1,19.4,10.9,26.9c-7,0.5-14.1,0-21.1-1.8c-16.9-4.1-37-19.4-31.8-39.2c2.3-8.9,9.8-15.7,17.9-19.5
	c3.8-1.8,7.7-3,11.8-3.9c6.3,0.9,12.7,1.3,19,1.2c1.1,0.1,2.3,0.1,3.5-0.1c0.4,0,0.9,0,1.3,0c4.3-0.2,17-3.9,12.5-10.3
	c-1.4-2-3.4-3.3-5.8-4c-0.6-1.1-1.3-2.2-1.9-3.3c-2.5-7.5-2-16.5-1.6-24c0.7-12.1,3.3-23.8,7.2-35.3c2.4-7.1-17.3-4.1-19.7,2.9
	c-3,8.7-5.1,17.5-6.3,26.5c-4.2-4.8-8.8-9.2-13.9-13.1C51.9,9.5,25,2.9,9.3,20.5c-16.2,18.1,7.9,37.9,22.4,46.6
	c6.9,4.1,14.3,7.4,22,9.8c-1.5,0.7-3,1.5-4.4,2.3c-16.5,9.3-31.1,27.5-23.3,47.2c7.8,19.5,29.1,28.9,48.8,31.1
	c12.4,1.4,24.7,0.4,36.8-2.4c13.1,3.6,25.1-3.1,34.5-12c1.7,0.6,3.7,0.8,5.8,0.7c2,4.2,4.8,7.9,8.4,10.7c13,9.9,26.6,5.2,36.5-5.2
	c4.5,2.5,9.8,4.4,11.5,3.1c7.1-5.5,14.9-10,23-13.3c-0.4,4.9-0.7,9.9-0.9,14.9c-0.1,3.7,17.1,11.8,18.4,8.8
	c3-6.8,7.8-12.8,14.3-16.6c5.9-3.4,16.7-6.9,23.1-3.2c1.5,0.9,10.6,5.8,12,4C299.9,144.9,294.6,142.3,293,141.4z M55.8,61.3
	c-11.2-5.2-33.3-17.4-31.9-32.4c1.7-19.3,31.4,5.2,36.9,10.8c8.4,8.6,15.1,18.7,21.1,29c-0.6,0.1-1.1,0.2-1.7,0.2
	C71.8,67.5,63.6,65,55.8,61.3z M258.1,100.9c0.4-1.1,0.8-2.4,1.4-3.5c0.6,1.6,1.2,3.2,1.8,4.8c1.5,4,2.8,8.1,3.8,12.3
	c0.4,2,1.2,4.2,0.6,6.3c-0.8,2.9-1,1.9-4,1.7c-2.8-0.3-5.6-0.4-8.5-0.4c0.6-3.1,1.2-6.3,1.9-9.4C256,108.7,256.8,104.7,258.1,100.9z
	 M118.1,139.6c-5.9-4.7-11-14.1-12.1-21.5c-0.6-4.1-0.6-6.8,3.8-6.5c5.1,0.3,10.3,3.3,14.2,6.3c5.1,3.9,9.3,8.9,13,14.2
	c-0.9,1.1-1.8,2.2-2.7,3.3c-4.5,2.2-9.2,4.2-13.9,5.8C119.7,140.7,118.9,140.2,118.1,139.6z M181.3,137.6c-1.2,1.5-4.9,7.1-7,7.3
	c-2.8,0.3-4.5-5.4-5.1-8c-0.6-2.5-1-5.2-1.1-8c3.1-2.2,6.1-4.5,8.9-6.9c0.1,0.3,0.1,0.5,0.2,0.8c1.1,5,2.4,9.7,4.9,13.9
	C181.8,137,181.6,137.3,181.3,137.6z M229,124.7c-0.4,0.1-0.9,0.2-1.3,0.3c2.5-4,4.9-8.1,7.2-12.3c-0.7,3.7-1.3,7.4-1.8,11.1
	C231.7,124.1,230.4,124.3,229,124.7z"/>
<ellipse transform="matrix(0.9541 -0.2995 0.2995 0.9541 -14.7296 71.9677)" cx="227.4" cy="84" rx="9.9" ry="6.1"/>
</svg>
